<?xml version="1.0" encoding="UTF-8"?>
<svg id="Layer_2" data-name="Layer 2" xmlns="http://www.w3.org/2000/svg" viewBox="0 0 31.95 32.86">
  <defs>
    <style>
      .cls-1 {
        fill: none;
        stroke-width: 2.37px;
      }

      .cls-1, .cls-2 {
        stroke: #ff5a5a;
        stroke-linecap: round;
        stroke-linejoin: round;
      }

      .cls-2 {
        fill: #ff5a5a;
        stroke-width: 1.93px;
      }
    </style>
  </defs>
  <g id="Layer_1-2" data-name="Layer 1">
    <g>
      <path class="cls-2" d="M30.99,17.26c0,.81-.33,1.55-.86,2.08-.53.53-1.27.86-2.08.86H3.91c-1.6,0-2.93-1.28-2.95-2.87-.02-1.49.57-2.84,1.55-3.81.96-.95,2.28-1.55,3.74-1.55h3.97c.82,0,1.38-.83,1.07-1.59-1.58-3.86-.77-6.24.59-7.68,2.19-2.33,6.01-2.33,8.19,0,1.35,1.44,2.16,3.82.58,7.68-.31.76.25,1.59,1.07,1.59h3.98c2.92,0,5.29,2.37,5.29,5.28Z"/>
      <path class="cls-1" d="M3.33,18.66c-.22,1.93-.37,4.53-1.11,7.58-.74,3.05-1.93,5.05,3.79,5.05s14.11.22,16.93-4.46c0,0-.52,4.83,2.3,4.83s7.87,1.19,3.27-13H3.33Z"/>
    </g>
  </g>
</svg>