<?xml version="1.0" encoding="UTF-8"?>
<svg id="Layer_2" data-name="Layer 2" xmlns="http://www.w3.org/2000/svg" viewBox="0 0 32.12 25.29">
  <defs>
    <style>
      .cls-1 {
        fill: none;
        stroke: #6e52b4;
        stroke-linecap: round;
        stroke-linejoin: round;
        stroke-width: 3.51px;
      }
    </style>
  </defs>
  <g id="Layer_1-2" data-name="Layer 1">
    <g>
      <path class="cls-1" d="M20.83,23.53H5.93c-.86,0-1.73-.22-2.44-.7-.87-.59-1.73-1.64-1.73-3.52V7.49S1.49,1.75,8.22,1.75h12.61"/>
      <path class="cls-1" d="M15.99,13.72s1.39,0-.64,0S4.41,6.64,3.62,4.76"/>
      <path class="cls-1" d="M11.29,23.53h14.9c.86,0,1.73-.22,2.44-.7.87-.59,1.73-1.64,1.73-3.52,0-3.76,0-11.81,0-11.81,0,0,.26-5.74-6.47-5.74-6.73,0-12.61,0-12.61,0"/>
      <path class="cls-1" d="M16.12,13.72s-1.39,0,.64,0,10.94-7.08,11.73-8.96"/>
    </g>
  </g>
</svg>