<?xml version="1.0" encoding="UTF-8" standalone="no"?>
<!DOCTYPE svg PUBLIC "-//W3C//DTD SVG 1.1//EN" "http://www.w3.org/Graphics/SVG/1.1/DTD/svg11.dtd">
<svg width="100%" height="100%" viewBox="0 0 22 26" version="1.1" xmlns="http://www.w3.org/2000/svg" xmlns:xlink="http://www.w3.org/1999/xlink" xml:space="preserve" xmlns:serif="http://www.serif.com/" style="fill-rule:evenodd;clip-rule:evenodd;stroke-linejoin:round;stroke-miterlimit:2;">
    <g transform="matrix(1,0,0,1,-1594.467817,-57.539251)">
        <g transform="matrix(1,0,0,1,1601.5986,75.9906)">
            <path d="M0,-11.579C0.029,-12.218 -0.02,-12.869 0.078,-13.496C0.353,-15.252 1.792,-16.531 3.57,-16.675C5.774,-16.852 7.666,-15.101 7.698,-12.85C7.704,-12.418 7.692,-11.986 7.703,-11.554C7.707,-11.389 7.648,-11.351 7.494,-11.351C6.279,-11.357 5.064,-11.354 3.849,-11.354C2.641,-11.354 1.432,-11.358 0.224,-11.35C0.043,-11.349 -0.008,-11.402 0,-11.579M0.188,-7.454C0.425,-7.764 0.798,-7.884 1.161,-7.769C1.534,-7.651 1.771,-7.333 1.779,-6.91C1.791,-6.245 2.057,-5.704 2.577,-5.3C3.232,-4.791 3.965,-4.705 4.71,-5.049C5.462,-5.394 5.881,-6.008 5.917,-6.848C5.934,-7.248 6.073,-7.561 6.445,-7.731C7.063,-8.012 7.724,-7.537 7.69,-6.845C7.601,-5.01 6.446,-3.608 4.664,-3.187C4.397,-3.124 4.118,-3.112 3.845,-3.076C1.818,-3.102 0.159,-4.662 0.024,-6.682C0.006,-6.958 0.012,-7.223 0.188,-7.454M14.778,1.824C14.628,0.838 14.49,-0.151 14.349,-1.14C14.141,-2.602 13.937,-4.065 13.728,-5.527C13.491,-7.183 13.249,-8.838 13.014,-10.494C12.934,-11.057 12.619,-11.351 12.054,-11.354C11.264,-11.358 10.474,-11.361 9.683,-11.352C9.509,-11.35 9.453,-11.391 9.454,-11.575C9.459,-12.189 9.486,-12.808 9.426,-13.417C9.302,-14.686 8.788,-15.792 7.901,-16.716C6.937,-17.721 5.754,-18.296 4.373,-18.425C3.113,-18.542 1.926,-18.271 0.857,-17.579C-0.517,-16.692 -1.395,-15.446 -1.652,-13.827C-1.768,-13.093 -1.735,-12.334 -1.751,-11.586C-1.755,-11.398 -1.806,-11.349 -1.99,-11.351C-2.794,-11.36 -3.598,-11.36 -4.401,-11.353C-4.882,-11.349 -5.235,-11.047 -5.302,-10.586C-5.481,-9.358 -5.656,-8.13 -5.83,-6.901C-6.039,-5.432 -6.248,-3.962 -6.454,-2.493C-6.672,-0.943 -6.901,0.605 -7.099,2.157C-7.219,3.099 -6.995,3.988 -6.498,4.79C-5.601,6.238 -4.281,6.951 -2.579,6.953C-0.437,6.954 1.704,6.953 3.845,6.953C5.987,6.953 8.128,6.963 10.269,6.945C10.723,6.942 11.19,6.888 11.626,6.769C13.754,6.184 15.119,4.071 14.778,1.824" style="fill:rgb(107,80,176);fill-rule:nonzero;"/>
        </g>
    </g>
</svg>
