<?xml version="1.0" encoding="UTF-8"?>
<svg id="Layer_2" data-name="Layer 2" xmlns="http://www.w3.org/2000/svg" viewBox="0 0 69.22 82.42">
  <defs>
    <style>
      .cls-1 {
        fill: none;
      }

      .cls-1, .cls-2 {
        stroke: #6e52b4;
        stroke-linecap: round;
        stroke-linejoin: round;
        stroke-width: 8.35px;
      }

      .cls-2 {
        fill: #e1c5ff;
      }

      .cls-3 {
        fill: #6e52b4;
        font-family: Borsok, Borsok;
        font-size: 51.87px;
      }
    </style>
  </defs>
  <g id="Layer_1-2" data-name="Layer 1">
    <g>
      <g>
        <path class="cls-1" d="M34.72,78.24s-.07,0-.11-.01"/>
        <path class="cls-2" d="M64.73,65.2s-2.12,14.3-6.83,11.47c-4.72-2.82-10.29-8.48-11.51-7.07-1.21,1.41-7.99,8.49-11.78,8.63-3.79-.13-10.58-7.22-11.79-8.63-1.21-1.41-6.79,4.25-11.5,7.07-4.72,2.83-6.84-11.47-6.84-11.47,0,0-.7-37.93,0-49.48.71-11.55,13.67-11.55,13.67-11.55h32.91s12.96,0,13.67,11.55c.71,11.55,0,49.48,0,49.48Z"/>
        <path class="cls-1" d="M34.61,78.23s-.08.01-.12.01"/>
      </g>
      <text class="cls-3" transform="translate(20.09 55.46)"><tspan x="0" y="0">$</tspan></text>
    </g>
  </g>
</svg>