<?xml version="1.0" encoding="UTF-8" standalone="no"?>
<!DOCTYPE svg PUBLIC "-//W3C//DTD SVG 1.1//EN" "http://www.w3.org/Graphics/SVG/1.1/DTD/svg11.dtd">
<svg width="100%" height="100%" viewBox="0 0 23 29" version="1.1" xmlns="http://www.w3.org/2000/svg" xmlns:xlink="http://www.w3.org/1999/xlink" xml:space="preserve" xmlns:serif="http://www.serif.com/" style="fill-rule:evenodd;clip-rule:evenodd;stroke-linejoin:round;stroke-miterlimit:2;">
    <g transform="matrix(1,0,0,1,-1711.708403,-55.815149)">
        <g>
            <g transform="matrix(1,0,0,1,1723.8108,76.7879)">
                <path d="M0,-18.472C-0.001,-19.053 -0.421,-19.488 -0.983,-19.493C-1.529,-19.498 -2.03,-19 -2.025,-18.459C-2.019,-17.918 -1.55,-17.451 -1.014,-17.451C-0.411,-17.452 0.001,-17.868 0,-18.472M-7.291,-9.535C-7.291,-9.259 -7.32,-8.977 -7.285,-8.705C-7.227,-8.252 -6.896,-7.976 -6.524,-8.025C-6.119,-8.077 -5.922,-8.376 -5.91,-8.843C-5.892,-9.497 -5.892,-10.161 -5.779,-10.803C-5.514,-12.304 -4.719,-13.4 -3.212,-13.89C-2.761,-14.037 -2.572,-14.368 -2.686,-14.757C-2.798,-15.145 -3.199,-15.347 -3.644,-15.204C-4.461,-14.942 -5.199,-14.538 -5.783,-13.895C-6.906,-12.658 -7.248,-11.145 -7.291,-9.535M-0.969,2.7L-10.184,2.7C-10.917,2.7 -11.501,2.398 -11.861,1.766C-12.196,1.178 -12.186,0.542 -11.808,-0.021C-11.621,-0.3 -11.334,-0.546 -11.038,-0.711C-9.698,-1.46 -9.046,-2.576 -9.068,-4.116C-9.095,-5.944 -9.052,-7.773 -9.095,-9.6C-9.18,-13.201 -6.973,-16.361 -3.74,-17.512C-3.422,-17.625 -3.451,-17.832 -3.48,-18.068C-3.591,-18.976 -3.311,-19.738 -2.637,-20.355C-1.883,-21.045 -0.696,-21.172 0.223,-20.66C1.149,-20.146 1.68,-19.076 1.477,-18.078C1.415,-17.772 1.499,-17.638 1.791,-17.524C4.668,-16.401 6.448,-14.342 7.029,-11.291C7.126,-10.779 7.164,-10.249 7.17,-9.727C7.192,-7.841 7.192,-5.953 7.193,-4.067C7.194,-2.562 7.825,-1.432 9.141,-0.68C9.916,-0.238 10.249,0.541 10.038,1.316C9.798,2.195 9.145,2.695 8.201,2.696C5.144,2.7 2.087,2.697 -0.969,2.697L-0.969,2.7Z" style="fill:rgb(107,80,176);fill-rule:nonzero;"/>
            </g>
            <g transform="matrix(1,0,0,1,1723.1633,85.2142)">
                <path d="M0,-4.203C0.92,-4.203 1.841,-4.204 2.761,-4.203C3.444,-4.201 3.709,-3.882 3.508,-3.225C3.159,-2.087 2.432,-1.235 1.322,-0.808C-0.805,0.009 -3,-1.129 -3.609,-3.311C-3.761,-3.853 -3.509,-4.199 -2.936,-4.204C-1.958,-4.212 -0.979,-4.206 0,-4.206L0,-4.203Z" style="fill:rgb(107,80,176);fill-rule:nonzero;"/>
            </g>
        </g>
    </g>
</svg>
