<?xml version="1.0" encoding="UTF-8" standalone="no"?>
<!DOCTYPE svg PUBLIC "-//W3C//DTD SVG 1.1//EN" "http://www.w3.org/Graphics/SVG/1.1/DTD/svg11.dtd">
<svg width="100%" height="100%" viewBox="0 0 28 28" version="1.1" xmlns="http://www.w3.org/2000/svg" xmlns:xlink="http://www.w3.org/1999/xlink" xml:space="preserve" xmlns:serif="http://www.serif.com/" style="fill-rule:evenodd;clip-rule:evenodd;stroke-linejoin:round;stroke-miterlimit:2;">
    <g transform="matrix(1,0,0,1,-1650.409183,-56.5809)">
        <g transform="matrix(1,0,0,1,1662.0281,71.4689)">
            <path d="M0,-2.3C0.003,-1.141 0.944,-0.202 2.1,-0.205C3.257,-0.208 4.194,-1.151 4.192,-2.309C4.189,-3.468 3.248,-4.406 2.091,-4.404C0.935,-4.402 -0.003,-3.459 0,-2.3M9.555,-2.315C9.55,-3.471 8.603,-4.409 7.447,-4.404C6.292,-4.399 5.352,-3.449 5.358,-2.294C5.364,-1.139 6.313,-0.199 7.468,-0.205C8.623,-0.211 9.559,-1.157 9.555,-2.315M-3.258,-4.404C-4.415,-4.408 -5.36,-3.468 -5.363,-2.312C-5.366,-1.154 -4.428,-0.208 -3.273,-0.205C-2.118,-0.202 -1.171,-1.142 -1.167,-2.298C-1.163,-3.453 -2.104,-4.4 -3.258,-4.404M1.676,-14.888C5.868,-14.817 9.22,-13.669 12.011,-11.095C14.09,-9.178 15.386,-6.821 15.728,-3.991C16.088,-1.017 15.401,1.714 13.715,4.194C12.479,6.013 10.915,7.507 9.161,8.813C7.247,10.238 5.181,11.4 2.994,12.348C2.44,12.588 2.049,12.33 2.048,11.729C2.046,11.23 2.048,10.732 2.047,10.233C2.046,9.718 1.846,9.518 1.334,9.489C-2.034,9.301 -5.043,8.189 -7.587,5.945C-9.706,4.075 -11.08,1.76 -11.491,-1.059C-11.963,-4.288 -11.121,-7.186 -9.094,-9.72C-6.954,-12.394 -4.126,-13.951 -0.789,-14.591C0.161,-14.773 1.136,-14.826 1.676,-14.888" style="fill:rgb(107,80,176);fill-rule:nonzero;"/>
        </g>
    </g>
</svg>
